<svg width="240" height="248" viewBox="0 0 240 248" fill="none" xmlns="http://www.w3.org/2000/svg">
<rect x="198" y="22.0001" width="5" height="50" transform="rotate(90 198 22.0001)" fill="white"/>
<rect x="198" y="22.0001" width="5" height="50" transform="rotate(90 198 22.0001)" fill="white"/>
<rect x="198" y="22.0001" width="5" height="50" transform="rotate(90 198 22.0001)" fill="#00AAE6"/>
<rect x="182" width="50" height="134" transform="rotate(90 182 0)" fill="#00AAE6"/>
<rect x="48" y="50.0001" width="198" height="48" transform="rotate(90 48 50.0001)" fill="#00AAE6"/>
<rect x="49.9998" y="0.000244141" width="50" height="50" transform="rotate(90 49.9998 0.000244141)" fill="#00AAE6"/>
<rect x="148" y="50" width="50" height="50" transform="rotate(90 148 50)" fill="white"/>
<rect x="148" y="50" width="50" height="50" transform="rotate(90 148 50)" fill="white"/>
<rect x="148" y="50" width="50" height="50" transform="rotate(90 148 50)" fill="white"/>
<rect x="148" y="198" width="50" height="50" transform="rotate(90 148 198)" fill="#00AAE6"/>
<rect x="240" y="198" width="50" height="192" transform="rotate(90 240 198)" fill="#00AAE6"/>
<rect x="198" y="0.00012207" width="248" height="50" transform="rotate(90 198 0.00012207)" fill="white"/>
<rect x="198" y="0.00012207" width="248" height="50" transform="rotate(90 198 0.00012207)" fill="white"/>
<rect x="198" y="0.00012207" width="248" height="50" transform="rotate(90 198 0.00012207)" fill="white"/>
<rect x="240" y="198" width="50" height="142" transform="rotate(90 240 198)" fill="white"/>
<rect x="240" y="198" width="50" height="142" transform="rotate(90 240 198)" fill="white"/>
<rect x="240" y="198" width="50" height="142" transform="rotate(90 240 198)" fill="white"/>
</svg>
